<?xml version="1.0" encoding="UTF-8" standalone="no"?>
<svg 
    role="img" 
    xmlns="http://www.w3.org/2000/svg" 
    width="1000mm"
    height="1000mm"
    viewBox="0 0 1000 1000"
    style="max-width:1.6em; height: auto;">
    
    <path 
        id="path" 
        style="opacity:1;vector-effect:none;fill:#000000;fill-opacity:1;"
        d=" M 375 550C 458 571 458 575 500 575C 542 575 547 571 630 550C 755 550 825 625 825 750C 825 750 825 825 825 825C 825 867 792 900 750 900C 750 900 250 900 250 900C 208 900 175 867 175 825C 175 825 175 750 175 750C 175 625 250 550 375 550C 375 550 375 550 375 550M 800 300C 800 300 850 300 850 300C 864 300 875 311 875 325C 875 325 875 400 875 400C 875 400 950 400 950 400C 964 400 975 411 975 425C 975 425 975 475 975 475C 975 489 964 500 950 500C 950 500 875 500 875 500C 875 500 875 575 875 575C 875 589 864 600 850 600C 850 600 800 600 800 600C 786 600 775 589 775 575C 775 575 775 500 775 500C 775 500 700 500 700 500C 686 500 675 489 675 475C 675 475 675 425 675 425C 675 411 686 400 700 400C 700 400 775 400 775 400C 775 400 775 325 775 325C 775 311 786 300 800 300C 800 300 800 300 800 300M 500 118C 550 118 597 138 633 173C 668 208 688 256 688 306C 687 409 604 493 500 493C 396 493 312 409 312 306C 312 256 332 208 367 173C 403 138 450 118 500 118C 500 118 500 118 500 118"
        transform="">
    </path>    
</svg>